<svg xmlns="http://www.w3.org/2000/svg" width="112.722" height="88.128" viewBox="0 0 112.722 88.128"><linearGradient id="a" gradientUnits="userSpaceOnUse" x1="239.077" y1="461.331" x2="268.013" y2="522.963" gradientTransform="scale(1 -1) rotate(-15.742 -1681.33 1065.408)"><stop offset="0" stop-color="#dea446"/><stop offset="1" stop-color="#c74d45"/></linearGradient><path fill-rule="evenodd" clip-rule="evenodd" fill="url(#a)" d="M19.37 23.593C12.779 29.239 8.35 36.087 5.545 41.598c-1.634 3.139-2.417 5.916-3.121 7.52-.839-2.338.254-25.727 5.909-28.935 5.806-2.862 13.928-5.073 13.928-5.073s-2.957 5.167-2.891 8.483z"/><linearGradient id="b" gradientUnits="userSpaceOnUse" x1="293.639" y1="472.179" x2="332.399" y2="472.179" gradientTransform="scale(1 -1) rotate(-15.742 -1681.33 1065.408)"><stop offset="0" stop-color="#d45748"/><stop offset=".463" stop-color="#de8470"/><stop offset="1" stop-color="#c74d45"/></linearGradient><path fill-rule="evenodd" clip-rule="evenodd" fill="url(#b)" d="M60.506 37.292c-1.164 1.471-2.174 3.286-1.1 4.789C62.711 47.212 90.338 57.4 94.762 52.35c.621-.428 1.943-2.455 2.024-3.632-4.501 4.433-30.973-4.529-34.123-9.319-.459-1.028-2.622-1.338-2.157-2.107z"/><linearGradient id="c" gradientUnits="userSpaceOnUse" x1="235.273" y1="471.275" x2="295.403" y2="471.275" gradientTransform="scale(1 -1) rotate(-15.742 -1681.33 1065.408)"><stop offset="0" stop-color="#d17345"/><stop offset="1" stop-color="#d55e4d"/></linearGradient><path fill-rule="evenodd" clip-rule="evenodd" fill="url(#c)" d="M19.493 11.631c-12.062 2-23.486 18.577-18.141 35.083.228.966.535 1.652.994 2.683.706-2.501 1.173-3.271 2.496-6.195C1.19 28.672 9.807 18.5 16.921 17.205c15.313-2.882 34.681 4.678 43.997 14.202 1.154 1.227 1.071 2.403.759 3.515 1.322-2.028 2.569-4.677.643-6.718C51.853 17.451 32.407 9.27 19.493 11.631z"/><linearGradient id="d" gradientUnits="userSpaceOnUse" x1="244.524" y1="489.877" x2="332.381" y2="489.877" gradientTransform="scale(1 -1) rotate(-15.742 -1681.33 1065.408)"><stop offset="0" stop-color="#dea446"/><stop offset="1" stop-color="#d06d45"/></linearGradient><path fill-rule="evenodd" clip-rule="evenodd" fill="url(#d)" d="M77.681 12.734C66.21 1.1 41.805-2.781 33.209 1.996 20.658 10.16 19.887 9.343 15.623 12.939c12.615-4.845 35.148 3.91 46.617 15.543 3.619 4.019-3.815 8.223-1.742 11.507C63.801 45.12 91.43 55.307 95.697 50.81c4.651-4.086-1.491-34.619-6.349-37.79-3.623-2.22-7.973 3.454-11.667-.286z"/><linearGradient id="e" gradientUnits="userSpaceOnUse" x1="81.375" y1="178.728" x2="95.064" y2="178.728" gradientTransform="scale(1 -1) rotate(-10.353 -1188.218 -16.886)"><stop offset="0" stop-color="#4c6baf"/><stop offset="1" stop-color="#4a80c1"/></linearGradient><path fill-rule="evenodd" clip-rule="evenodd" fill="url(#e)" d="M94.784 62.497c10.021-9.323 12.303-21.819 13.845-26.235 1.538-4.414 2.608 24.547-2.72 28.268-5.275 3.441-13.443 6.644-13.443 6.644s2.748-5.663 2.318-8.677z"/><path fill-rule="evenodd" clip-rule="evenodd" fill="#4B77B9" d="M52.593 52.441c.786-1.616 1.622-3.517.41-4.914-3.535-4.755-32.234-12.344-36.166-6.9-.338.526-1.464 2.669-1.672 3.806 4.063-4.837 31.263 1.6 34.793 6.356.608.696 2.792.802 2.635 1.652z"/><path fill-rule="evenodd" clip-rule="evenodd" fill="#5A79B9" d="M95.839 74.138c11.06-2.971 20.666-19.414 15.399-34.758-.688-1.593-1.139-3.143-2.063-4.78-.756 2.798-1.46 5.311-1.721 6.73.32.938.268 1.223.585 2.161 3.028 12.883-3.729 23.095-10.401 24.81-14.737 4.354-34.967-1.398-44.9-9.962-1.501-1.154-1.53-2.332-1.324-3.471-.888 2.187-2.117 4.896-.009 6.749 11.434 9.72 31.56 16.04 44.434 12.521z"/><linearGradient id="f" gradientUnits="userSpaceOnUse" x1=".499" y1="157.865" x2="88.594" y2="157.865" gradientTransform="scale(1 -1) rotate(-10.353 -1188.218 -16.886)"><stop offset="0" stop-color="#4b7cbd"/><stop offset=".719" stop-color="#57baf1"/><stop offset="1" stop-color="#3eb4f0"/></linearGradient><path fill-rule="evenodd" clip-rule="evenodd" fill="url(#f)" d="M37.567 78.461c12.513 10.507 37.174 12.076 45.286 6.513 11.729-9.305 12.806-8.521 16.714-12.503-12.34 5.962-35.596-.633-48.108-11.137-3.98-3.662 3.264-8.504.654-11.619-3.534-4.757-32.233-12.347-36.058-7.471-4.248 4.507 4.736 34.328 10.106 37.07 3.577 1.827 7.375-4.229 11.406-.853z"/></svg>