<?xml version="1.0" encoding="utf-8"?>
<!-- Generator: Adobe Illustrator 16.0.0, SVG Export Plug-In . SVG Version: 6.00 Build 0)  -->
<!DOCTYPE svg PUBLIC "-//W3C//DTD SVG 1.1//EN" "http://www.w3.org/Graphics/SVG/1.1/DTD/svg11.dtd">
<svg version="1.1" id="Слой_1" xmlns="http://www.w3.org/2000/svg" xmlns:xlink="http://www.w3.org/1999/xlink" x="0px" y="0px"
	 width="112.722px" height="88.128px" viewBox="0 0 112.722 88.128" enable-background="new 0 0 112.722 88.128"
	 xml:space="preserve">
<g>
	<g>
		
			<linearGradient id="SVGID_1_" gradientUnits="userSpaceOnUse" x1="239.0771" y1="461.3306" x2="268.0127" y2="522.9629" gradientTransform="matrix(0.9625 0.2713 0.2713 -0.9625 -352.1033 416.1865)">
			<stop  offset="0" style="stop-color:#DEA446"/>
			<stop  offset="1" style="stop-color:#C74D45"/>
		</linearGradient>
		<path fill-rule="evenodd" clip-rule="evenodd" fill="url(#SVGID_1_)" d="M19.37,23.593c-6.591,5.646-11.02,12.494-13.825,18.005
			c-1.634,3.139-2.417,5.916-3.121,7.52C1.585,46.78,2.678,23.391,8.333,20.183c5.806-2.862,13.928-5.073,13.928-5.073
			S19.304,20.277,19.37,23.593L19.37,23.593z"/>
		
			<linearGradient id="SVGID_2_" gradientUnits="userSpaceOnUse" x1="293.6387" y1="472.1792" x2="332.3994" y2="472.1792" gradientTransform="matrix(0.9625 0.2713 0.2713 -0.9625 -352.1033 416.1865)">
			<stop  offset="0" style="stop-color:#D45748"/>
			<stop  offset="0.4632" style="stop-color:#DE8470"/>
			<stop  offset="1" style="stop-color:#C74D45"/>
		</linearGradient>
		<path fill-rule="evenodd" clip-rule="evenodd" fill="url(#SVGID_2_)" d="M60.506,37.292c-1.164,1.471-2.174,3.286-1.1,4.789
			c3.305,5.131,30.932,15.319,35.356,10.269c0.621-0.428,1.943-2.455,2.024-3.632c-4.501,4.433-30.973-4.529-34.123-9.319
			C62.204,38.371,60.041,38.061,60.506,37.292L60.506,37.292z"/>
		
			<linearGradient id="SVGID_3_" gradientUnits="userSpaceOnUse" x1="235.2734" y1="471.2749" x2="295.4033" y2="471.2749" gradientTransform="matrix(0.9625 0.2713 0.2713 -0.9625 -352.1033 416.1865)">
			<stop  offset="0" style="stop-color:#D17345"/>
			<stop  offset="1" style="stop-color:#D55E4D"/>
		</linearGradient>
		<path fill-rule="evenodd" clip-rule="evenodd" fill="url(#SVGID_3_)" d="M19.493,11.631c-12.062,2-23.486,18.577-18.141,35.083
			c0.228,0.966,0.535,1.652,0.994,2.683c0.706-2.501,1.173-3.271,2.496-6.195C1.19,28.672,9.807,18.5,16.921,17.205
			c15.313-2.882,34.681,4.678,43.997,14.202c1.154,1.227,1.071,2.403,0.759,3.515c1.322-2.028,2.569-4.677,0.643-6.718
			C51.853,17.451,32.407,9.27,19.493,11.631L19.493,11.631z"/>
		
			<linearGradient id="SVGID_4_" gradientUnits="userSpaceOnUse" x1="244.5244" y1="489.8765" x2="332.3809" y2="489.8765" gradientTransform="matrix(0.9625 0.2713 0.2713 -0.9625 -352.1033 416.1865)">
			<stop  offset="0" style="stop-color:#DEA446"/>
			<stop  offset="1" style="stop-color:#D06D45"/>
		</linearGradient>
		<path fill-rule="evenodd" clip-rule="evenodd" fill="url(#SVGID_4_)" d="M77.681,12.734C66.21,1.1,41.805-2.781,33.209,1.996
			C20.658,10.16,19.887,9.343,15.623,12.939c12.615-4.845,35.148,3.91,46.617,15.543c3.619,4.019-3.815,8.223-1.742,11.507
			c3.303,5.131,30.932,15.318,35.199,10.821c4.651-4.086-1.491-34.619-6.349-37.79C85.725,10.8,81.375,16.474,77.681,12.734
			L77.681,12.734z"/>
	</g>
	<g>
		
			<linearGradient id="SVGID_5_" gradientUnits="userSpaceOnUse" x1="81.375" y1="178.728" x2="95.0645" y2="178.728" gradientTransform="matrix(0.9837 0.1797 0.1797 -0.9837 -16.3084 213.7976)">
			<stop  offset="0" style="stop-color:#4C6BAF"/>
			<stop  offset="1" style="stop-color:#4A80C1"/>
		</linearGradient>
		<path fill-rule="evenodd" clip-rule="evenodd" fill="url(#SVGID_5_)" d="M94.784,62.497c10.021-9.323,12.303-21.819,13.845-26.235
			c1.538-4.414,2.608,24.547-2.72,28.268c-5.275,3.441-13.443,6.644-13.443,6.644S95.214,65.511,94.784,62.497L94.784,62.497z"/>
		<path fill-rule="evenodd" clip-rule="evenodd" fill="#4B77B9" d="M52.593,52.441c0.786-1.616,1.622-3.517,0.41-4.914
			c-3.535-4.755-32.234-12.344-36.166-6.9c-0.338,0.526-1.464,2.669-1.672,3.806c4.063-4.837,31.263,1.6,34.793,6.356
			C50.566,51.485,52.75,51.591,52.593,52.441L52.593,52.441z"/>
		<path fill-rule="evenodd" clip-rule="evenodd" fill="#5A79B9" d="M95.839,74.138c11.06-2.971,20.666-19.414,15.399-34.758
			c-0.688-1.593-1.139-3.143-2.063-4.78c-0.756,2.798-1.46,5.311-1.721,6.73c0.32,0.938,0.268,1.223,0.585,2.161
			c3.028,12.883-3.729,23.095-10.401,24.81c-14.737,4.354-34.967-1.398-44.9-9.962c-1.501-1.154-1.53-2.332-1.324-3.471
			c-0.888,2.187-2.117,4.896-0.009,6.749C62.839,71.337,82.965,77.657,95.839,74.138L95.839,74.138z"/>
		
			<linearGradient id="SVGID_6_" gradientUnits="userSpaceOnUse" x1="0.499" y1="157.8647" x2="88.5938" y2="157.8647" gradientTransform="matrix(0.9837 0.1797 0.1797 -0.9837 -16.3084 213.7976)">
			<stop  offset="0" style="stop-color:#4B7CBD"/>
			<stop  offset="0.7193" style="stop-color:#57BAF1"/>
			<stop  offset="1" style="stop-color:#3EB4F0"/>
		</linearGradient>
		<path fill-rule="evenodd" clip-rule="evenodd" fill="url(#SVGID_6_)" d="M37.567,78.461c12.513,10.507,37.174,12.076,45.286,6.513
			c11.729-9.305,12.806-8.521,16.714-12.503c-12.34,5.962-35.596-0.633-48.108-11.137c-3.98-3.662,3.264-8.504,0.654-11.619
			c-3.534-4.757-32.233-12.347-36.058-7.471c-4.248,4.507,4.736,34.328,10.106,37.07C29.738,81.141,33.536,75.085,37.567,78.461
			L37.567,78.461z"/>
	</g>
</g>
</svg>
